HIERARCHY
ROOT Hips
{
	OFFSET 0.000000 71.427986 0.000000
	CHANNELS 6 Xposition Yposition Zposition Xrotation Yrotation Zrotation
	JOINT Pelvis
	{
		OFFSET 0.000000 0.000000 0.000000
		CHANNELS 3 Xrotation Yrotation Zrotation
		JOINT LeftUpLeg
		{
			OFFSET 6.797100 -2.508499 -1.318700
			CHANNELS 3 Xrotation Yrotation Zrotation
			JOINT LeftLeg
			{
				OFFSET 0.069008 -29.241863 0.690200
				CHANNELS 3 Xrotation Yrotation Zrotation
				JOINT LeftFoot
				{
					OFFSET -0.069008 -29.568123 -0.266800
					CHANNELS 3 Xrotation Yrotation Zrotation
					JOINT LeftToeBase
					{
						OFFSET 3.145500 -8.631000 16.059900
						CHANNELS 3 Xrotation Yrotation Zrotation
						End Site
						{
							OFFSET 0.000000 18.501587 0.000000
						}
					}
				}
			}
			JOINT Left_ShortSleeve
			{
				OFFSET 0.265923 -10.480953 1.153800
				CHANNELS 3 Xrotation Yrotation Zrotation
				End Site
				{
					OFFSET 1.725763 19.823879 0.000000
				}
			}
		}
		JOINT RightUpLeg
		{
			OFFSET -6.797100 -2.508499 -1.318700
			CHANNELS 3 Xrotation Yrotation Zrotation
			JOINT RightLeg
			{
				OFFSET -0.082453 -29.241932 0.688000
				CHANNELS 3 Xrotation Yrotation Zrotation
				JOINT RightFoot
				{
					OFFSET 0.082453 -29.568058 -0.264600
					CHANNELS 3 Xrotation Yrotation Zrotation
					JOINT RightToeBase
					{
						OFFSET -3.115300 -8.682800 16.113400
						CHANNELS 3 Xrotation Yrotation Zrotation
						End Site
						{
							OFFSET 0.000000 18.567114 0.000000
						}
					}
				}
			}
			JOINT Right_ShortSleeve
			{
				OFFSET -0.265923 -10.480953 1.153800
				CHANNELS 3 Xrotation Yrotation Zrotation
				End Site
				{
					OFFSET -1.725766 19.823910 0.000000
				}
			}
		}
	}
	JOINT Spine
	{
		OFFSET 0.000000 13.368103 0.470500
		CHANNELS 3 Xrotation Yrotation Zrotation
		JOINT Spine1
		{
			OFFSET 0.147000 13.837402 0.538800
			CHANNELS 3 Xrotation Yrotation Zrotation
			JOINT Spine2
			{
				OFFSET 0.168000 16.242897 -1.435500
				CHANNELS 3 Xrotation Yrotation Zrotation
				JOINT Neck
				{
					OFFSET 0.217200 18.631500 -1.679100
					CHANNELS 3 Xrotation Yrotation Zrotation
					JOINT Head
					{
						OFFSET 0.000000 6.599396 1.385900
						CHANNELS 3 Xrotation Yrotation Zrotation
						JOINT Hat
						{
							OFFSET -0.532200 27.220596 -10.096100
							CHANNELS 3 Xrotation Yrotation Zrotation
							End Site
							{
								OFFSET 0.000000 22.029861 0.000000
							}
						}
						JOINT HairD
						{
							OFFSET -10.777400 17.437393 -1.325900
							CHANNELS 3 Xrotation Yrotation Zrotation
							JOINT HairD1
							{
								OFFSET -3.290299 -11.051193 1.062200
								CHANNELS 3 Xrotation Yrotation Zrotation
								End Site
								{
									OFFSET 0.000000 11.579437 0.000000
								}
							}
						}
						JOINT HairB
						{
							OFFSET -10.777400 17.437393 1.467900
							CHANNELS 3 Xrotation Yrotation Zrotation
							JOINT HairB1
							{
								OFFSET -1.561200 -12.956299 3.590200
								CHANNELS 3 Xrotation Yrotation Zrotation
								End Site
								{
									OFFSET 0.000000 13.534866 0.000000
								}
							}
						}
						JOINT HairA
						{
							OFFSET 9.713100 17.437393 1.467900
							CHANNELS 3 Xrotation Yrotation Zrotation
							JOINT HairA1
							{
								OFFSET 1.561200 -12.956299 3.590200
								CHANNELS 3 Xrotation Yrotation Zrotation
								End Site
								{
									OFFSET 0.000000 13.534866 0.000000
								}
							}
						}
						JOINT HairC
						{
							OFFSET 9.713100 17.437393 -1.325900
							CHANNELS 3 Xrotation Yrotation Zrotation
							JOINT HairC1
							{
								OFFSET 3.290300 -11.051193 1.062200
								CHANNELS 3 Xrotation Yrotation Zrotation
								End Site
								{
									OFFSET 0.000000 11.579437 0.000000
								}
							}
						}
					}
				}
				JOINT LeftShoulder
				{
					OFFSET 5.101800 15.108002 -2.763700
					CHANNELS 3 Xrotation Yrotation Zrotation
					JOINT LeftArm
					{
						OFFSET 9.825497 2.506317 -1.597400
						CHANNELS 3 Xrotation Yrotation Zrotation
						JOINT LeftForeArm
						{
							OFFSET 21.966244 0.000000 0.000000
							CHANNELS 3 Xrotation Yrotation Zrotation
							JOINT LeftHand
							{
								OFFSET 33.879036 0.000000 0.000000
								CHANNELS 3 Xrotation Yrotation Zrotation
								JOINT LeftHandThumb1
								{
									OFFSET 6.715286 -2.359680 3.363841
									CHANNELS 3 Xrotation Yrotation Zrotation
									JOINT LeftHandThumb2
									{
										OFFSET 2.507072 -1.447464 1.447461
										CHANNELS 3 Xrotation Yrotation Zrotation
										JOINT LeftHandThumb3
										{
											OFFSET 2.898338 -1.673355 1.673357
											CHANNELS 3 Xrotation Yrotation Zrotation
											End Site
											{
												OFFSET -0.295959 3.727692 -0.131651
											}
										}
									}
								}
								JOINT LeftHandIndex1
								{
									OFFSET 14.190811 -0.254547 3.840278
									CHANNELS 3 Xrotation Yrotation Zrotation
									JOINT LeftHandIndex2
									{
										OFFSET 3.551727 0.000000 -0.000000
										CHANNELS 3 Xrotation Yrotation Zrotation
										JOINT LeftHandIndex3
										{
											OFFSET 2.894196 0.000000 0.000000
											CHANNELS 3 Xrotation Yrotation Zrotation
											End Site
											{
												OFFSET -1.000603 2.690872 0.366626
											}
										}
									}
								}
								JOINT LeftHandMiddle1
								{
									OFFSET 13.776489 0.000000 0.000000
									CHANNELS 3 Xrotation Yrotation Zrotation
									JOINT LeftHandMiddle2
									{
										OFFSET 3.438232 0.000000 0.000000
										CHANNELS 3 Xrotation Yrotation Zrotation
										JOINT LeftHandMiddle3
										{
											OFFSET 3.691551 0.000000 0.000000
											CHANNELS 3 Xrotation Yrotation Zrotation
											End Site
											{
												OFFSET -1.082298 3.499527 0.457670
											}
										}
									}
								}
								JOINT LeftHandRing1
								{
									OFFSET 13.966164 -0.268127 -3.067488
									CHANNELS 3 Xrotation Yrotation Zrotation
									JOINT LeftHandRing2
									{
										OFFSET 3.162567 0.000000 0.000000
										CHANNELS 3 Xrotation Yrotation Zrotation
										JOINT LeftHandRing3
										{
											OFFSET 3.324348 0.000000 0.000000
											CHANNELS 3 Xrotation Yrotation Zrotation
											End Site
											{
												OFFSET -0.861900 3.184998 0.405154
											}
										}
									}
								}
								JOINT LeftHandPinky1
								{
									OFFSET 13.131393 -0.168503 -5.746925
									CHANNELS 3 Xrotation Yrotation Zrotation
									JOINT LeftHandPinky2
									{
										OFFSET 2.849182 0.000000 0.000000
										CHANNELS 3 Xrotation Yrotation Zrotation
										JOINT LeftHandPinky3
										{
											OFFSET 2.805038 0.000000 0.000000
											CHANNELS 3 Xrotation Yrotation Zrotation
											End Site
											{
												OFFSET -0.882500 2.642609 0.325652
											}
										}
									}
								}
							}
							JOINT Left_Sleeve
							{
								OFFSET 6.592125 -0.646545 0.805568
								CHANNELS 3 Xrotation Yrotation Zrotation
								End Site
								{
									OFFSET -0.000179 20.275787 -0.000000
								}
							}
						}
					}
				}
				JOINT RightShoulder
				{
					OFFSET -5.731700 15.108002 -2.763700
					CHANNELS 3 Xrotation Yrotation Zrotation
					JOINT RightArm
					{
						OFFSET -9.825497 2.506317 -1.597400
						CHANNELS 3 Xrotation Yrotation Zrotation
						JOINT RightForeArm
						{
							OFFSET -21.966242 0.000000 0.000000
							CHANNELS 3 Xrotation Yrotation Zrotation
							JOINT RightHand
							{
								OFFSET -33.879032 0.000000 0.000000
								CHANNELS 3 Xrotation Yrotation Zrotation
								JOINT RightHandThumb1
								{
									OFFSET -6.715286 -2.359680 3.363841
									CHANNELS 3 Xrotation Yrotation Zrotation
									JOINT RightHandThumb2
									{
										OFFSET -2.507072 -1.447464 1.447461
										CHANNELS 3 Xrotation Yrotation Zrotation
										JOINT RightHandThumb3
										{
											OFFSET -2.898338 -1.673355 1.673357
											CHANNELS 3 Xrotation Yrotation Zrotation
											End Site
											{
												OFFSET 0.295959 3.727692 -0.131651
											}
										}
									}
								}
								JOINT RightHandIndex1
								{
									OFFSET -14.190811 -0.254547 3.840278
									CHANNELS 3 Xrotation Yrotation Zrotation
									JOINT RightHandIndex2
									{
										OFFSET -3.551727 0.000000 -0.000000
										CHANNELS 3 Xrotation Yrotation Zrotation
										JOINT RightHandIndex3
										{
											OFFSET -2.894196 0.000000 0.000000
											CHANNELS 3 Xrotation Yrotation Zrotation
											End Site
											{
												OFFSET 1.000603 2.690872 0.366626
											}
										}
									}
								}
								JOINT RightHandMiddle1
								{
									OFFSET -13.776489 0.000000 0.000000
									CHANNELS 3 Xrotation Yrotation Zrotation
									JOINT RightHandMiddle2
									{
										OFFSET -3.438232 0.000000 0.000000
										CHANNELS 3 Xrotation Yrotation Zrotation
										JOINT RightHandMiddle3
										{
											OFFSET -3.691551 0.000000 0.000000
											CHANNELS 3 Xrotation Yrotation Zrotation
											End Site
											{
												OFFSET 1.082298 3.499527 0.457670
											}
										}
									}
								}
								JOINT RightHandRing1
								{
									OFFSET -13.966164 -0.268127 -3.067488
									CHANNELS 3 Xrotation Yrotation Zrotation
									JOINT RightHandRing2
									{
										OFFSET -3.162567 0.000000 0.000000
										CHANNELS 3 Xrotation Yrotation Zrotation
										JOINT RightHandRing3
										{
											OFFSET -3.324348 0.000000 0.000000
											CHANNELS 3 Xrotation Yrotation Zrotation
											End Site
											{
												OFFSET 0.861900 3.184998 0.405154
											}
										}
									}
								}
								JOINT RightHandPinky1
								{
									OFFSET -13.131393 -0.168503 -5.746925
									CHANNELS 3 Xrotation Yrotation Zrotation
									JOINT RightHandPinky2
									{
										OFFSET -2.849182 0.000000 0.000000
										CHANNELS 3 Xrotation Yrotation Zrotation
										JOINT RightHandPinky3
										{
											OFFSET -2.805038 0.000000 0.000000
											CHANNELS 3 Xrotation Yrotation Zrotation
											End Site
											{
												OFFSET 0.882500 2.642609 0.325652
											}
										}
									}
								}
							}
							JOINT Right_Sleeve
							{
								OFFSET -6.592125 -0.646545 0.805568
								CHANNELS 3 Xrotation Yrotation Zrotation
								End Site
								{
									OFFSET 0.000179 20.275787 -0.000000
								}
							}
						}
					}
				}
				JOINT Bind_Right_JacketString
				{
					OFFSET -3.534800 11.969597 7.200700
					CHANNELS 3 Xrotation Yrotation Zrotation
					JOINT Bind_Right_JacketString1
					{
						OFFSET -0.319900 -6.102600 2.794100
						CHANNELS 3 Xrotation Yrotation Zrotation
						End Site
						{
							OFFSET 0.000000 6.719452 0.000000
						}
					}
				}
				JOINT Bind_Left_JacketString
				{
					OFFSET 2.904800 11.969597 7.200700
					CHANNELS 3 Xrotation Yrotation Zrotation
					JOINT Bind_Left_JacketString1
					{
						OFFSET 0.364800 -5.904503 3.186800
						CHANNELS 3 Xrotation Yrotation Zrotation
						End Site
						{
							OFFSET 0.000000 6.719513 0.000000
						}
					}
				}
				JOINT HairE
				{
					OFFSET 5.915200 17.612701 -11.592200
					CHANNELS 3 Xrotation Yrotation Zrotation
					JOINT HairE1
					{
						OFFSET 0.289200 -7.171898 -1.284500
						CHANNELS 3 Xrotation Yrotation Zrotation
						End Site
						{
							OFFSET 0.000000 7.291756 0.000000
						}
					}
				}
				JOINT HairF
				{
					OFFSET -0.864800 17.612701 -11.592200
					CHANNELS 3 Xrotation Yrotation Zrotation
					JOINT HairF1
					{
						OFFSET 0.000000 -14.087097 -2.127501
						CHANNELS 3 Xrotation Yrotation Zrotation
						End Site
						{
							OFFSET 0.000000 14.246841 0.000000
						}
					}
				}
				JOINT HairG
				{
					OFFSET -8.087700 17.612701 -11.592200
					CHANNELS 3 Xrotation Yrotation Zrotation
					JOINT HairG1
					{
						OFFSET -0.293600 -6.081398 -0.910100
						CHANNELS 3 Xrotation Yrotation Zrotation
						End Site
						{
							OFFSET 0.000000 6.156120 0.000000
						}
					}
				}
			}
		}
	}
	JOINT Pouch
	{
		OFFSET 0.000000 4.394501 10.847300
		CHANNELS 3 Xrotation Yrotation Zrotation
		End Site
		{
			OFFSET 0.000000 21.880577 0.000000
		}
	}
	JOINT Bag
	{
		OFFSET -13.229000 4.813004 -0.593300
		CHANNELS 3 Xrotation Yrotation Zrotation
		End Site
		{
			OFFSET 0.000000 21.880577 0.000000
		}
	}
	JOINT OccupyGuyFacialAnim_Joint
	{
		OFFSET 1.000000 -70.206398 -1.655000
		CHANNELS 3 Xrotation Yrotation Zrotation
		End Site
		{
			OFFSET 0.000000 21.880577 0.000000
		}
	}
}
MOTION
Frames: 4
Frame Time: 0.033333
-0.265522 69.881683 0.240231 -0.282689 0.033184 -2.736349 0.000000 -0.000000 0.000000 -16.840567 12.436057 11.871013 23.099995 11.749897 1.002505 -5.418086 2.871903 -7.407087 0.000000 -0.000002 0.000000 -0.000000 0.000001 0.000000 -3.360139 -4.141364 2.933450 18.662080 -2.806037 3.826896 -14.861052 0.091783 -3.440921 -0.000000 -0.000001 -0.000000 -0.000000 0.000000 -0.000001 0.567292 -1.423940 0.734911 0.884704 -0.154383 2.637805 0.868037 0.313564 2.550322 1.242740 -0.362780 0.178331 1.579608 0.543349 -5.747759 -0.000000 0.000000 -0.000000 -0.000000 0.000000 -0.000000 -0.000000 0.000000 -0.000000 -0.000000 0.000000 0.000000 -0.000000 -0.000000 -0.000000 -0.000000 0.000000 0.000000 -0.000000 -0.000000 -0.000000 -0.000000 0.000000 -0.000000 -0.000000 0.000000 -0.000000 0.000018 -0.000019 -0.312852 3.284652 -25.851921 -73.291563 2.210824 -20.459202 0.701242 -31.889791 -2.761260 2.775325 15.772753 2.736701 17.226167 -2.095472 31.047783 -7.361445 0.000000 0.000001 -0.000002 2.369892 3.655778 -8.470925 -2.148817 2.464582 -18.676471 -0.000000 -0.000001 -0.000002 -1.977809 5.701674 -13.647565 0.262694 5.095084 -26.987877 0.000001 0.000000 -0.000001 -3.264374 8.554502 -11.754386 4.032596 4.051328 -33.265217 -0.000001 -0.000000 0.000003 -6.476551 11.333634 -23.247047 10.714841 2.545219 -34.824693 -0.000003 0.000002 0.000003 0.000002 -0.000001 0.000000 0.000036 -0.000016 0.312819 5.327860 -3.221376 75.188751 -0.286935 18.989814 0.139593 -7.879830 -10.226465 5.197518 15.779556 -2.730622 -17.214068 -2.090652 -31.045908 7.368391 -0.000000 -0.000004 0.000000 2.372142 -3.655213 8.489131 -2.148898 -2.464942 18.674627 -0.000000 -0.000000 0.000000 -1.976880 -5.701819 13.665518 0.262191 -5.094025 26.988702 0.000001 0.000000 0.000001 -3.260098 -8.214665 11.646174 4.031942 -4.048819 33.264777 0.000001 -0.000001 0.000004 -6.475831 -11.337703 23.265622 10.714912 -2.543892 34.823743 0.000000 0.000000 0.000000 0.000000 0.000000 -0.000000 -0.000000 -0.000000 0.000000 0.000000 -0.000000 0.000000 -0.000000 -0.000000 0.000000 -0.000000 -0.000000 0.000000 -0.000000 -0.000000 0.000000 0.000000 -0.000000 0.000000 -0.000000 -0.000000 0.000000 -0.000000 -0.000000 0.000000 -0.000000 -0.000000 0.000000 0.000000 -0.000000 0.000000 0.000000 -0.000000 0.000000 0.000000 -0.000000 0.000000 0.000000 -0.000000 0.000000 
-0.265116 69.882111 0.238530 -0.317070 0.033104 -2.751990 -0.000000 0.000000 -0.000000 -16.824062 12.474120 11.752665 22.970816 15.628378 1.341888 -5.391407 -0.960615 -7.938663 -0.000000 -0.000002 0.000000 0.000003 -0.000000 0.000000 -3.339076 -4.183204 3.068559 18.914293 -6.370721 3.567924 -14.909144 3.507151 -2.376852 -0.000000 0.000001 0.000000 -0.000000 -0.000000 -0.000000 0.565606 -1.417205 0.735765 0.860329 -0.164263 2.642425 0.833947 0.294911 2.547297 1.284657 -0.351139 0.091918 1.658299 0.552152 -5.659909 0.000000 -0.000000 0.000000 0.000000 -0.000000 0.000000 0.000000 -0.000000 0.000000 0.000000 -0.000000 0.000000 -0.000000 -0.000000 0.000000 0.000000 -0.000000 0.000000 -0.000000 -0.000000 0.000000 0.000000 -0.000000 0.000000 0.000000 -0.000000 0.000000 -0.059081 0.063300 -0.281730 3.451327 -25.650051 -73.371094 2.389171 -20.475618 0.773465 -31.915893 -2.836782 2.716759 15.772748 2.736704 17.226164 -2.110775 31.018727 -7.365222 0.000000 0.000001 0.000000 2.367325 3.638367 -8.359568 -2.158242 2.453073 -18.580871 0.000001 -0.000000 -0.000000 -1.984534 5.672391 -13.464532 0.249101 5.068414 -26.801708 -0.000000 0.000003 -0.000002 -3.271897 8.518831 -11.536721 4.019867 4.031883 -33.128692 -0.000000 -0.000001 -0.000000 -6.486579 11.310769 -23.079327 10.693874 2.515043 -34.610098 -0.000000 -0.000003 -0.000003 0.000002 -0.000001 0.000002 -0.132425 -0.071339 0.281271 5.558794 -2.988303 75.219002 -0.306755 19.025116 0.150407 -7.856476 -10.298845 5.177832 15.779421 -2.736914 -17.219481 -2.093877 -31.049719 7.366602 -0.000001 0.000000 0.000000 2.373146 -3.651072 8.458835 -2.147503 -2.457468 18.640049 -0.000001 -0.000000 -0.000002 -1.975626 -5.695409 13.636680 0.264814 -5.082298 26.971377 -0.000001 -0.000000 -0.000001 -4.983940 -10.113489 10.765006 4.031675 -4.040430 33.247817 0.000000 -0.000000 -0.000004 -6.469171 -11.333320 23.255416 10.714294 -2.546651 34.814366 -0.000000 0.000001 0.000001 0.000000 -0.000001 -0.000000 -0.000000 -0.000000 0.000000 -0.000000 -0.000000 -0.000000 -0.000000 -0.000000 0.000000 -0.000000 -0.000000 0.000000 -0.000000 -0.000000 0.000000 -0.000000 -0.000000 0.000000 -0.000000 -0.000000 0.000000 -0.000000 -0.000000 0.000000 -0.000000 -0.000000 0.000000 -0.000000 -0.000000 0.000000 -0.000000 0.000000 -0.000000 -0.000000 0.000000 -0.000000 -0.000000 0.000000 -0.000000 
-0.266318 69.880554 0.235062 -0.364190 0.033553 -2.763788 0.000000 0.000000 0.000000 -16.801333 12.482943 11.774339 23.004053 15.620204 1.341442 -5.406022 -0.967198 -7.941591 0.000000 0.000000 -0.000000 0.000001 -0.000000 -0.000001 -3.297611 -4.201091 3.078546 18.927197 -6.361778 3.568722 -14.914319 3.517572 -2.379058 -0.000000 0.000000 -0.000000 0.000000 0.000000 -0.000000 0.568317 -1.417172 0.735270 0.848813 -0.165670 2.643082 0.809732 0.281663 2.549297 1.326462 -0.361591 0.003510 1.749923 0.573025 -5.565906 -0.000000 0.000000 0.000000 -0.000000 0.000000 0.000000 -0.000000 0.000000 0.000000 -0.000000 0.000000 0.000000 -0.000000 0.000000 -0.000000 -0.000000 0.000000 0.000000 -0.000000 0.000000 -0.000000 -0.000000 0.000000 0.000000 -0.000000 0.000000 0.000000 -0.114839 0.105481 -0.255088 3.604962 -25.462312 -73.447988 2.553971 -20.459140 0.838951 -31.946086 -2.925010 2.662141 15.772753 2.736702 17.226162 -2.116676 30.996498 -7.371465 -0.000000 0.000001 -0.000000 2.361031 3.627262 -8.283984 -2.160878 2.450668 -18.518342 0.000000 0.000001 0.000002 -1.993221 5.650399 -13.321328 0.238374 5.047246 -26.654403 0.000001 -0.000002 -0.000001 -3.277805 8.489896 -11.360235 4.010242 4.017149 -33.025590 -0.000001 0.000001 0.000003 -6.496122 11.288772 -22.948363 10.676808 2.490192 -34.433890 -0.000003 0.000000 0.000001 -0.000000 -0.000000 0.000000 -0.244058 -0.134704 0.255761 5.732203 -2.779078 75.250148 -0.334144 19.045581 0.159393 -7.829556 -10.346820 5.161934 15.781415 -2.741466 -17.219428 -2.092603 -31.057625 7.362948 -0.000001 -0.000000 0.000003 2.370394 -3.647412 8.427336 -2.150228 -2.452069 18.608108 -0.000000 0.000000 -0.000001 -1.977688 -5.689926 13.608061 0.261716 -5.082302 26.951025 -0.000000 -0.000001 0.000001 -4.984608 -10.111224 10.745653 4.030381 -4.041638 33.230718 -0.000000 -0.000000 0.000001 -6.470085 -11.332833 23.250980 10.713733 -2.548503 34.804595 -0.000001 0.000000 0.000002 0.000000 0.000001 0.000000 -0.000000 -0.000000 -0.000000 -0.000000 0.000000 -0.000000 -0.000000 -0.000000 -0.000000 -0.000000 -0.000000 -0.000000 -0.000000 -0.000000 -0.000000 -0.000000 0.000000 -0.000000 -0.000000 -0.000000 -0.000000 -0.000000 -0.000000 -0.000000 -0.000000 -0.000000 -0.000000 -0.000000 0.000000 -0.000000 0.000000 0.000000 0.000000 0.000000 0.000000 0.000000 0.000000 0.000000 0.000000 
-0.268511 69.877541 0.230555 -0.415381 0.034702 -2.776675 -0.000000 0.000000 0.000000 -16.782559 12.488063 11.799282 23.050635 15.613527 1.341259 -5.425457 -0.973941 -7.947267 -0.000000 -0.000000 0.000000 -0.000000 -0.000001 -0.000000 -3.261125 -4.216779 3.090397 18.956705 -6.355379 3.569675 -14.927170 3.527430 -2.381065 -0.000000 0.000000 0.000000 -0.000000 0.000000 -0.000000 0.597620 -1.417160 0.734906 0.887218 -0.153897 2.651475 0.834197 0.280384 2.558133 1.373473 -0.376896 -0.086871 1.734002 0.567067 -5.484422 -0.000001 0.000000 0.000000 -0.000001 0.000000 0.000000 -0.000001 0.000000 -0.000000 -0.000001 0.000000 0.000000 -0.000001 -0.000000 0.000000 -0.000001 0.000000 0.000000 -0.000001 -0.000000 0.000000 -0.000001 0.000000 0.000000 -0.000001 0.000000 0.000000 -0.154724 0.135602 -0.235895 3.628614 -25.314553 -73.534213 2.708303 -20.433482 0.899722 -31.980295 -3.013084 2.613964 15.772751 2.736700 17.226167 -2.120857 30.982373 -7.374688 0.000000 -0.000000 -0.000002 2.358568 3.622349 -8.243241 -2.162343 2.448863 -18.487702 0.000002 0.000001 -0.000000 -1.999542 5.634326 -13.217044 0.230427 5.031432 -26.544405 0.000001 -0.000001 -0.000001 -3.282361 8.467455 -11.223469 4.003700 4.006983 -32.954597 -0.000002 0.000000 0.000003 -6.503044 11.272646 -22.852510 10.663292 2.470513 -34.294363 -0.000000 -0.000000 0.000003 -0.000000 0.000001 -0.000002 -0.332619 -0.185015 0.234910 5.752987 -2.627715 75.263678 -0.371738 19.082256 0.171869 -7.794661 -10.386514 5.148569 15.786116 -2.754893 -17.221596 -2.091511 -31.070295 7.355500 -0.000001 -0.000001 0.000004 2.367656 -3.643721 8.395435 -2.152764 -2.447035 18.579021 -0.000001 -0.000000 0.000000 -1.979661 -5.684591 13.580339 0.258343 -5.082358 26.929206 0.000001 0.000001 -0.000004 -4.982448 -10.108526 10.727253 4.029131 -4.042806 33.213803 0.000001 -0.000001 -0.000000 -6.471901 -11.331785 23.241636 10.713111 -2.550310 34.795002 0.000000 0.000000 -0.000001 -0.000000 0.000001 -0.000001 0.000000 -0.000000 0.000000 0.000000 0.000000 -0.000000 0.000000 -0.000000 0.000000 0.000000 -0.000000 0.000000 0.000000 -0.000000 0.000000 0.000000 0.000000 0.000000 0.000000 -0.000000 0.000000 0.000000 -0.000000 0.000000 0.000000 -0.000000 0.000000 0.000000 0.000000 0.000000 -0.000000 0.000000 0.000000 -0.000000 0.000000 0.000000 -0.000000 0.000000 0.000000 
